<svg width="24" height="23" viewBox="0 0 24 23" fill="none" xmlns="http://www.w3.org/2000/svg">
<path d="M1.8 0L2.5 1.2L3.7 1.8L2.5 2.5L1.8 3.7L1.2 2.5L0 1.8L1.2 1.2L1.8 0Z" fill="#FFA500"/>
<path d="M21.8 10L22.5 11.2L23.7 11.8L22.5 12.5L21.8 13.7L21.2 12.5L20 11.8L21.2 11.2L21.8 10Z" fill="#FFA500"/>
<path d="M13 11.7C13 8 15 4.8 18 3C16.5 2.1 14.8 1.7 13 1.7C7.5 1.7 3 6.2 3 11.7C3 17.2 7.5 21.7 13 21.7C14.8 21.7 16.5 21.2 18 20.4C15 18.7 13 15.4 13 11.7Z" fill="#FFA500" stroke="#FFA500" stroke-width="2" stroke-linejoin="round"/>
</svg>
