<svg width="34" height="30" viewBox="0 0 34 30" fill="none" xmlns="http://www.w3.org/2000/svg">
<path d="M23.5205 9.34C23.5205 6.58 21.3005 4.42 18.6005 4.42C18.0005 4.42 17.4605 4.54 16.9205 4.72C16.7405 2.68 15.0605 1 12.9605 1C10.7405 1 8.94055 2.8 8.94055 5.02C8.94055 5.5 9.06055 5.98 9.18055 6.4C9.00055 6.34 8.76055 6.34 8.58055 6.34C6.36055 6.34 4.56055 8.14 4.56055 10.36C4.56055 12.52 6.30055 14.32 8.46055 14.38H18.7805C21.4205 14.08 23.5205 11.98 23.5205 9.34Z" fill="#C6DEFF" stroke="white" stroke-width="0.72" stroke-linejoin="round"/>
<path d="M32.6 20.5C32.6 15.9 28.9 12.3 24.4 12.3C23.4 12.3 22.5 12.5 21.6 12.8C21.3 9.4 18.5 6.6 15 6.6C11.3 6.6 8.3 9.6 8.3 13.3C8.3 14.1 8.5 14.9 8.7 15.6C8.4 15.5 8 15.5 7.7 15.5C4 15.5 1 18.5 1 22.2C1 25.8 3.9 28.8 7.5 28.9H24.7C29.1 28.4 32.6 24.9 32.6 20.5Z" fill="#C6DEFF" stroke="white" stroke-width="1.2" stroke-linejoin="round"/>
</svg>
