<svg width="32" height="20" viewBox="0 0 32 20" fill="none" xmlns="http://www.w3.org/2000/svg">
<path d="M14.44 0L15 0.96L15.96 1.44L15 2L14.44 2.96L13.96 2L13 1.44L13.96 0.96L14.44 0Z" fill="#FFA500"/>
<path d="M30.44 8L31 8.96L31.96 9.44L31 10L30.44 10.96L29.96 10L29 9.44L29.96 8.96L30.44 8Z" fill="#FFA500"/>
<path d="M23.4004 9.35999C23.4004 6.39999 25.0004 3.83999 27.4004 2.39999C26.2004 1.67999 24.8404 1.35999 23.4004 1.35999C19.0004 1.35999 15.4004 4.95999 15.4004 9.35999C15.4004 13.76 19.0004 17.36 23.4004 17.36C24.8404 17.36 26.2004 16.96 27.4004 16.32C25.0004 14.96 23.4004 12.32 23.4004 9.35999Z" fill="#FFA500" stroke="#FFA500" stroke-width="1.6" stroke-linejoin="round"/>
<path d="M23 13.3498C23 10.2556 20.424 7.83408 17.2911 7.83408C16.5949 7.83408 15.9684 7.96861 15.3418 8.1704C15.1329 5.88341 13.1835 4 10.7468 4C8.17089 4 6.08228 6.01794 6.08228 8.50673C6.08228 9.04484 6.22152 9.58296 6.36076 10.0538C6.1519 9.98655 5.87342 9.98655 5.66456 9.98655C3.08861 9.98655 1 12.0045 1 14.4933C1 16.9148 3.01899 18.9327 5.52532 19H17.5C20.5633 18.6637 23 16.3094 23 13.3498Z" fill="#C6DEFF" stroke="white" stroke-width="1.275" stroke-linejoin="round"/>
</svg>
