<svg width="34" height="34" viewBox="0 0 34 34" fill="none" xmlns="http://www.w3.org/2000/svg">
<path d="M32.6 14.9C32.6 10.3 28.9 6.7 24.4 6.7C23.4 6.7 22.5 6.9 21.6 7.2C21.3 3.8 18.5 1 15 1C11.3 1 8.3 4 8.3 7.7C8.3 8.5 8.5 9.3 8.7 10C8.4 9.9 8 9.9 7.7 9.9C4 9.9 1 12.9 1 16.6C1 20.2 3.9 23.2 7.5 23.3H24.7C29.1 22.8 32.6 19.3 32.6 14.9Z" fill="#C6DEFF" stroke="white" stroke-width="1.2" stroke-linejoin="round"/>
<path d="M7.90039 26V31" stroke="#519FFC" stroke-width="1.2" stroke-linecap="round"/>
<path d="M9.66797 26.7322L6.13243 30.2678" stroke="#519FFC" stroke-linecap="round"/>
<path d="M10.4004 28.5H5.40039" stroke="#519FFC" stroke-linecap="round"/>
<path d="M9.66797 30.2678L6.13243 26.7322" stroke="#519FFC" stroke-linecap="round"/>
<path d="M15.9004 28V33" stroke="#519FFC" stroke-width="1.2" stroke-linecap="round"/>
<path d="M17.668 28.7322L14.1324 32.2678" stroke="#519FFC" stroke-linecap="round"/>
<path d="M18.4004 30.5H13.4004" stroke="#519FFC" stroke-linecap="round"/>
<path d="M17.668 32.2678L14.1324 28.7322" stroke="#519FFC" stroke-linecap="round"/>
<path d="M24.9004 26V31" stroke="#519FFC" stroke-width="1.2" stroke-linecap="round"/>
<path d="M26.668 26.7322L23.1324 30.2678" stroke="#519FFC" stroke-linecap="round"/>
<path d="M27.4004 28.5H22.4004" stroke="#519FFC" stroke-linecap="round"/>
<path d="M26.668 30.2678L23.1324 26.7322" stroke="#519FFC" stroke-linecap="round"/>
</svg>
