<svg width="34" height="32" viewBox="0 0 34 32" fill="none" xmlns="http://www.w3.org/2000/svg">
<path d="M32.6 14.9C32.6 10.3 28.9 6.7 24.4 6.7C23.4 6.7 22.5 6.9 21.6 7.2C21.3 3.8 18.5 1 15 1C11.3 1 8.3 4 8.3 7.7C8.3 8.5 8.5 9.3 8.7 10C8.4 9.9 8 9.9 7.7 9.9C4 9.9 1 12.9 1 16.6C1 20.2 3.9 23.2 7.5 23.3H24.7C29.1 22.8 32.6 19.3 32.6 14.9Z" fill="#C6DEFF" stroke="white" stroke-width="1.2" stroke-linejoin="round"/>
<path d="M11.9004 26V31" stroke="#519FFC" stroke-width="1.2" stroke-linecap="round"/>
<path d="M13.668 26.7322L10.1324 30.2678" stroke="#519FFC" stroke-linecap="round"/>
<path d="M14.4004 28.5H9.40039" stroke="#519FFC" stroke-linecap="round"/>
<path d="M13.668 30.2678L10.1324 26.7322" stroke="#519FFC" stroke-linecap="round"/>
<path d="M20.9004 26V31" stroke="#519FFC" stroke-width="1.2" stroke-linecap="round"/>
<path d="M22.668 26.7322L19.1324 30.2678" stroke="#519FFC" stroke-linecap="round"/>
<path d="M23.4004 28.5H18.4004" stroke="#519FFC" stroke-linecap="round"/>
<path d="M22.668 30.2678L19.1324 26.7322" stroke="#519FFC" stroke-linecap="round"/>
</svg>
