<svg width="34" height="41" viewBox="0 0 34 41" fill="none" xmlns="http://www.w3.org/2000/svg">
<path d="M21.002 30L17.002 35" stroke="#91C0F8" stroke-width="3" stroke-linecap="round" stroke-dasharray="0.1 7"/>
<path d="M23.5186 9.34C23.5186 6.58 21.2986 4.42 18.5986 4.42C17.9986 4.42 17.4586 4.54 16.9186 4.72C16.7386 2.68 15.0586 1 12.9586 1C10.7386 1 8.93859 2.8 8.93859 5.02C8.93859 5.5 9.05859 5.98 9.17859 6.4C8.99859 6.34 8.75859 6.34 8.57859 6.34C6.35859 6.34 4.55859 8.14 4.55859 10.36C4.55859 12.52 6.29859 14.32 8.45859 14.38H18.7786C21.4186 14.08 23.5186 11.98 23.5186 9.34Z" fill="#C6DEFF" stroke="white" stroke-width="0.72" stroke-linejoin="round"/>
<path d="M32.6 18.5C32.6 13.9 28.9 10.3 24.4 10.3C23.4 10.3 22.5 10.5 21.6 10.8C21.3 7.40001 18.5 4.60001 15 4.60001C11.3 4.60001 8.3 7.60001 8.3 11.3C8.3 12.1 8.5 12.9 8.7 13.6C8.4 13.5 8 13.5 7.7 13.5C4 13.5 1 16.5 1 20.2C1 23.8 3.9 26.8 7.5 26.9H24.7C29.1 26.4 32.6 22.9 32.6 18.5Z" fill="#91C0F8" stroke="white" stroke-width="1.2" stroke-linejoin="round"/>
<path d="M8.82828 18.62H16.2683L11.3483 27.26H16.0283L5.46828 39.62L9.54828 30.38H4.98828L8.82828 18.62Z" fill="#FFA500" stroke="white" stroke-width="1.2"/>
</svg>
