<svg width="46" height="28" viewBox="0 0 46 28" fill="none" xmlns="http://www.w3.org/2000/svg">
<path d="M23.5396 0L24.0996 0.96L25.0596 1.44L24.0996 2L23.5396 2.96L23.0596 2L22.0996 1.44L23.0596 0.96L23.5396 0Z" fill="#FFA500"/>
<path d="M39.5396 8L40.0996 8.96L41.0596 9.44L40.0996 10L39.5396 10.96L39.0596 10L38.0996 9.44L39.0596 8.96L39.5396 8Z" fill="#FFA500"/>
<path d="M32.5 9.35999C32.5 6.39999 34.1 3.83999 36.5 2.39999C35.3 1.67999 33.94 1.35999 32.5 1.35999C28.1 1.35999 24.5 4.95999 24.5 9.35999C24.5 13.76 28.1 17.36 32.5 17.36C33.94 17.36 35.3 16.96 36.5 16.32C34.1 14.96 32.5 12.32 32.5 9.35999Z" fill="#FFA500" stroke="#FFA500" stroke-width="1.6" stroke-linejoin="round"/>
<path d="M45 19.7265C45 16.8386 42.6582 14.5785 39.8101 14.5785C39.1772 14.5785 38.6076 14.704 38.038 14.8924C37.8481 12.7578 36.0759 11 33.8608 11C31.519 11 29.6203 12.8834 29.6203 15.2063C29.6203 15.7085 29.7468 16.2108 29.8734 16.6502C29.6835 16.5874 29.4304 16.5874 29.2405 16.5874C26.8987 16.5874 25 18.4709 25 20.7937C25 23.0538 26.8354 24.9372 29.1139 25H40C42.7848 24.6861 45 22.4888 45 19.7265Z" fill="#C6DEFF" stroke="white" stroke-width="1.2" stroke-linejoin="round"/>
<path d="M32.6 18.9C32.6 14.3 28.9 10.7 24.4 10.7C23.4 10.7 22.5 10.9 21.6 11.2C21.3 7.8 18.5 5 15 5C11.3 5 8.3 8 8.3 11.7C8.3 12.5 8.5 13.3 8.7 14C8.4 13.9 8 13.9 7.7 13.9C4 13.9 1 16.9 1 20.6C1 24.2 3.9 27.2 7.5 27.3H24.7C29.1 26.8 32.6 23.3 32.6 18.9Z" fill="#C6DEFF" stroke="white" stroke-width="1.2" stroke-linejoin="round"/>
</svg>
