<svg width="34" height="41" viewBox="0 0 34 41" fill="none" xmlns="http://www.w3.org/2000/svg">
<path d="M23.5205 9.34C23.5205 6.58 21.3005 4.42 18.6005 4.42C18.0005 4.42 17.4605 4.54 16.9205 4.72C16.7405 2.68 15.0605 1 12.9605 1C10.7405 1 8.94055 2.8 8.94055 5.02C8.94055 5.5 9.06055 5.98 9.18055 6.4C9.00055 6.34 8.76055 6.34 8.58055 6.34C6.36055 6.34 4.56055 8.14 4.56055 10.36C4.56055 12.52 6.30055 14.32 8.46055 14.38H18.7805C21.4205 14.08 23.5205 11.98 23.5205 9.34Z" fill="#C6DEFF" stroke="white" stroke-width="0.72" stroke-linejoin="round"/>
<path d="M32.6 18.5C32.6 13.9 28.9 10.3 24.4 10.3C23.4 10.3 22.5 10.5 21.6 10.8C21.3 7.40001 18.5 4.60001 15 4.60001C11.3 4.60001 8.3 7.60001 8.3 11.3C8.3 12.1 8.5 12.9 8.7 13.6C8.4 13.5 8 13.5 7.7 13.5C4 13.5 1 16.5 1 20.2C1 23.8 3.9 26.8 7.5 26.9H24.7C29.1 26.4 32.6 22.9 32.6 18.5Z" fill="#91C0F8" stroke="white" stroke-width="1.2" stroke-linejoin="round"/>
<path d="M13.0607 18.62H20.5007L15.5807 27.26H20.2607L9.7007 39.62L13.7807 30.38H9.2207L13.0607 18.62Z" fill="#FFA500" stroke="white" stroke-width="1.2"/>
</svg>
