<svg width="24" height="24" viewBox="0 0 24 24" fill="none" xmlns="http://www.w3.org/2000/svg">
<path fill-rule="evenodd" clip-rule="evenodd" d="M12 4C7.58172 4 4 7.58172 4 12C4 16.4183 7.58172 20 12 20C16.4183 20 20 16.4183 20 12C20 7.58172 16.4183 4 12 4ZM2 12C2 6.47715 6.47715 2 12 2C17.5228 2 22 6.47715 22 12C22 17.5228 17.5228 22 12 22C6.47715 22 2 17.5228 2 12Z" fill="black"/>
<path fill-rule="evenodd" clip-rule="evenodd" d="M21 13H3V11H21V13Z" fill="black"/>
<path fill-rule="evenodd" clip-rule="evenodd" d="M12.2925 20.2933C12.2927 20.2931 12.2929 20.2929 13 21C13.7071 21.7071 13.7073 21.7069 13.7076 21.7067L13.7096 21.7047L13.7135 21.7007L13.7256 21.6884C13.7355 21.6783 13.7492 21.6642 13.7663 21.6464C13.8005 21.6108 13.8486 21.5599 13.9085 21.4947C14.0284 21.3641 14.196 21.1754 14.3954 20.9345C14.7935 20.4534 15.3224 19.7592 15.8517 18.8991C16.9014 17.1932 18 14.7582 18 12C18 9.24187 16.9014 6.80682 15.8517 5.10093C15.3224 4.24088 14.7935 3.54668 14.3954 3.06558C14.196 2.82461 14.0284 2.63592 13.9085 2.5054C13.8486 2.4401 13.8005 2.38927 13.7663 2.35364C13.7492 2.33582 13.7356 2.32179 13.7256 2.31164L13.7135 2.29934L13.7096 2.29539L13.7082 2.29397C13.7079 2.29372 13.7071 2.29292 13 3.00003C12.2929 3.70713 12.2927 3.70693 12.2925 3.70675L12.2973 3.71167L12.3235 3.7387C12.3479 3.7641 12.3858 3.80409 12.4352 3.85794C12.5341 3.9657 12.679 4.12857 12.8546 4.34072C13.2065 4.76587 13.6776 5.38417 14.1483 6.14912C15.0986 7.69323 16 9.75818 16 12C16 14.2419 15.0986 16.3068 14.1483 17.8509C13.6776 18.6159 13.2065 19.2342 12.8546 19.6593C12.679 19.8715 12.5341 20.0344 12.4352 20.1421C12.3858 20.196 12.3479 20.236 12.3235 20.2614L12.2973 20.2884L12.2925 20.2933Z" fill="black"/>
<path fill-rule="evenodd" clip-rule="evenodd" d="M11 21V3H13V21H11Z" fill="black"/>
<path fill-rule="evenodd" clip-rule="evenodd" d="M11.7075 20.2933C11.7073 20.2931 11.7071 20.2929 11 21C10.2929 21.7071 10.2927 21.7069 10.2924 21.7067L10.2904 21.7047L10.2865 21.7007L10.2744 21.6884C10.2645 21.6783 10.2508 21.6642 10.2337 21.6464C10.1995 21.6108 10.1514 21.5599 10.0915 21.4947C9.97165 21.3641 9.80403 21.1754 9.60461 20.9345C9.20645 20.4534 8.6776 19.7592 8.14834 18.8991C7.09856 17.1932 6 14.7582 6 12C6 9.24187 7.09856 6.80682 8.14834 5.10093C8.6776 4.24088 9.20645 3.54668 9.6046 3.06558C9.80403 2.82461 9.97165 2.63592 10.0915 2.5054C10.1514 2.4401 10.1995 2.38927 10.2337 2.35364C10.2508 2.33582 10.2644 2.32179 10.2744 2.31164L10.2865 2.29934L10.2904 2.29539L10.2918 2.29397C10.2921 2.29372 10.2929 2.29292 11 3.00003C11.7071 3.70713 11.7073 3.70693 11.7075 3.70675L11.7027 3.71167L11.6765 3.7387C11.6521 3.7641 11.6142 3.80409 11.5648 3.85794C11.4659 3.9657 11.321 4.12857 11.1454 4.34072C10.7935 4.76587 10.3224 5.38417 9.85166 6.14912C8.90144 7.69323 8 9.75818 8 12C8 14.2419 8.90144 16.3068 9.85166 17.8509C10.3224 18.6159 10.7935 19.2342 11.1454 19.6593C11.321 19.8715 11.4659 20.0344 11.5648 20.1421C11.6142 20.196 11.6521 20.236 11.6765 20.2614L11.7027 20.2884L11.7075 20.2933Z" fill="black"/>
</svg>
