<?xml version="1.0" standalone="no"?>
<!DOCTYPE svg PUBLIC "-//W3C//DTD SVG 20010904//EN"
 "http://www.w3.org/TR/2001/REC-SVG-20010904/DTD/svg10.dtd">
<svg version="1.0" xmlns="http://www.w3.org/2000/svg"
 width="700.000000pt" height="700.000000pt" viewBox="0 0 700.000000 700.000000"
 preserveAspectRatio="xMidYMid meet">
<metadata>
Created by potrace 1.14, written by Peter Selinger 2001-2017
</metadata>
<g transform="translate(0.000000,700.000000) scale(0.100000,-0.100000)"
fill="#000000" stroke="none">
<path d="M0 3500 l0 -3500 3500 0 3500 0 0 3500 0 3500 -3500 0 -3500 0 0
-3500z m2698 1674 c209 -37 413 -140 585 -295 116 -103 244 -296 302 -451 10
-27 19 -48 20 -48 1 0 48 24 106 54 210 110 389 155 644 163 153 4 198 2 300
-15 618 -106 1102 -573 1231 -1187 27 -126 27 -452 1 -575 -91 -427 -346 -783
-718 -1005 -155 -92 -355 -162 -542 -189 -159 -24 -2071 -24 -2185 0 -347 71
-617 340 -714 709 -46 177 -33 418 32 596 17 46 33 91 35 99 3 9 -24 38 -71
75 -181 145 -326 373 -390 610 -36 137 -45 359 -19 502 44 246 152 451 329
629 281 281 657 398 1054 328z"/>
</g>
</svg>
